<svg width="31" height="30" viewBox="0 0 31 30" fill="none" xmlns="http://www.w3.org/2000/svg">
<g clip-path="url(#clip0_226_30)">
<path d="M24.0585 1.25H6.54634C4.88819 1.25198 3.29853 1.9111 2.12604 3.08277C0.953554 4.25445 0.293978 5.84301 0.291992 7.5L0.291992 22.5C0.293978 24.157 0.953554 25.7456 2.12604 26.9172C3.29853 28.0889 4.88819 28.748 6.54634 28.75H24.0585C25.7166 28.748 27.3063 28.0889 28.4788 26.9172C29.6513 25.7456 30.3109 24.157 30.3128 22.5V7.5C30.3109 5.84301 29.6513 4.25445 28.4788 3.08277C27.3063 1.9111 25.7166 1.25198 24.0585 1.25ZM6.54634 3.75H24.0585C24.8075 3.75147 25.5389 3.97689 26.1586 4.39725C26.7784 4.81762 27.258 5.41368 27.5359 6.10875L17.9568 15.6825C17.2518 16.3841 16.2974 16.7781 15.3024 16.7781C14.3075 16.7781 13.353 16.3841 12.6481 15.6825L3.06892 6.10875C3.3468 5.41368 3.82646 4.81762 4.44619 4.39725C5.06591 3.97689 5.79733 3.75147 6.54634 3.75ZM24.0585 26.25H6.54634C5.55108 26.25 4.59659 25.8549 3.89284 25.1517C3.18909 24.4484 2.79373 23.4946 2.79373 22.5V9.375L10.8793 17.45C12.0534 18.6203 13.6441 19.2775 15.3024 19.2775C16.9607 19.2775 18.5514 18.6203 19.7255 17.45L27.8111 9.375V22.5C27.8111 23.4946 27.4157 24.4484 26.712 25.1517C26.0082 25.8549 25.0538 26.25 24.0585 26.25Z" fill="black"/>
</g>
<defs>
<clipPath id="clip0_226_30">
<rect width="30.0208" height="30" fill="white" transform="translate(0.291992)"/>
</clipPath>
</defs>
</svg>
