<svg width="31" height="30" viewBox="0 0 31 30" fill="none" xmlns="http://www.w3.org/2000/svg">
<g clip-path="url(#clip0_226_34)">
<path d="M15.3024 2.7025C19.3102 2.7025 19.7855 2.7175 21.3679 2.79C23.004 2.865 24.6889 3.2375 25.881 4.42875C27.0843 5.63125 27.4458 7.29875 27.5209 8.93875C27.5935 10.52 27.6085 10.995 27.6085 15C27.6085 19.005 27.5935 19.48 27.5209 21.0613C27.4471 22.6875 27.0656 24.3875 25.881 25.5713C24.6777 26.7738 23.0103 27.135 21.3679 27.21C19.7855 27.2825 19.3102 27.2975 15.3024 27.2975C11.2946 27.2975 10.8193 27.2825 9.23695 27.21C7.62208 27.1362 5.89839 26.7463 4.72382 25.5713C3.52674 24.375 3.15898 22.6913 3.08393 21.0613C3.01138 19.48 2.99637 19.005 2.99637 15C2.99637 10.995 3.01138 10.52 3.08393 8.93875C3.15773 7.31875 3.543 5.60875 4.72382 4.42875C5.92465 3.22875 7.59957 2.865 9.23695 2.79C10.8193 2.7175 11.2946 2.7025 15.3024 2.7025ZM15.3024 0C11.2258 0 10.7142 0.0175 9.11312 0.09C6.79276 0.19625 4.48866 0.84125 2.81124 2.5175C1.12757 4.2 0.488379 6.4975 0.382055 8.815C0.309504 10.415 0.291992 10.9262 0.291992 15C0.291992 19.0737 0.309504 19.585 0.382055 21.185C0.488379 23.5012 1.13633 25.81 2.81124 27.4825C4.49366 29.1637 6.79651 29.8037 9.11312 29.91C10.7142 29.9825 11.2258 30 15.3024 30C19.379 30 19.8906 29.9825 21.4917 29.91C23.8108 29.8037 26.1174 29.1575 27.7936 27.4825C29.4785 25.7987 30.1165 23.5025 30.2228 21.185C30.2953 19.585 30.3128 19.0737 30.3128 15C30.3128 10.9262 30.2953 10.415 30.2228 8.815C30.1165 6.49625 29.4698 4.1925 27.7936 2.5175C26.1137 0.83875 23.8046 0.195 21.4917 0.09C19.8906 0.0175 19.379 0 15.3024 0Z" fill="black"/>
<path d="M15.3026 7.29749C11.0459 7.29749 7.59473 10.7462 7.59473 15C7.59473 19.2537 11.0459 22.7025 15.3026 22.7025C19.5593 22.7025 23.0104 19.2537 23.0104 15C23.0104 10.7462 19.5593 7.29749 15.3026 7.29749ZM15.3026 20C12.5394 20 10.2991 17.7612 10.2991 15C10.2991 12.2387 12.5394 9.99999 15.3026 9.99999C18.0657 9.99999 20.3061 12.2387 20.3061 15C20.3061 17.7612 18.0657 20 15.3026 20Z" fill="black"/>
<path d="M23.3154 8.79251C24.3102 8.79251 25.1167 7.98662 25.1167 6.9925C25.1167 5.99839 24.3102 5.1925 23.3154 5.1925C22.3206 5.1925 21.5142 5.99839 21.5142 6.9925C21.5142 7.98662 22.3206 8.79251 23.3154 8.79251Z" fill="black"/>
</g>
<defs>
<clipPath id="clip0_226_34">
<rect width="30.0208" height="30" fill="white" transform="translate(0.291992)"/>
</clipPath>
</defs>
</svg>
