<svg width="773" height="247" viewBox="0 0 773 247" fill="none" xmlns="http://www.w3.org/2000/svg">
<mask id="mask0_325_28" style="mask-type:luminance" maskUnits="userSpaceOnUse" x="0" y="0" width="773" height="247">
<path d="M0 0H773V247H0V0Z" fill="white"/>
</mask>
<g mask="url(#mask0_325_28)">
<path d="M220.004 246.416C183.727 246.416 147.348 246.416 110.979 246.416C71.203 246.311 31.4267 246.123 -8.25836 246.123C-28.8463 246.123 -49.4444 246.217 -70.0424 246.311C-105.377 246.51 -140.802 246.896 -176.146 247C-181.806 246.896 -187.475 246.217 -192.962 244.757C-208.357 240.969 -217.048 230.566 -220.071 214.915C-221.967 205.002 -220.74 195.183 -218.377 185.563C-212.231 159.801 -206.278 133.945 -199.29 108.381C-193.905 88.6494 -186.156 69.7007 -177.181 51.4199C-175.761 48.707 -174.25 45.9836 -172.556 43.4481C-166.785 34.5059 -158.571 29.654 -148.266 28.2871C-131.167 25.9603 -113.977 24.5934 -96.6851 24.2073C-87.0503 24.1134 -77.4156 22.0683 -67.7707 21.2857C-44.8197 19.5432 -21.8586 18.1763 1.10255 16.4338C23.587 14.7747 46.0715 12.74 68.6472 10.9871C79.7018 10.1106 90.7564 9.63062 101.811 9.0463C130.066 7.4916 158.22 5.93689 186.465 4.47609C206.211 3.5057 225.957 2.82748 245.703 2.0449C298.897 -0.000213563 352.183 0.104128 405.377 1.16843C435.609 1.84665 465.842 2.62923 496.166 3.69352C515.061 4.38218 533.864 5.73864 552.758 7.09509C581.571 9.33846 610.485 11.4775 639.298 14.3887C669.44 17.4981 699.48 21.39 729.621 25.0838C733.78 25.762 737.836 26.7324 741.903 27.901C755.037 31.5009 763.252 40.2448 767.887 53.1729C771.761 63.868 772.795 74.9492 772.704 86.2182C772.704 94.3882 772.511 102.652 772.704 110.812C772.988 123.26 770.25 135.207 768.171 147.269C766.467 157.182 764.956 167.094 762.501 176.819C760.615 183.914 758.252 190.811 755.321 197.427C747.765 215.113 734.439 225.224 716.021 228.917C695.514 232.997 674.916 234.552 654.136 235.23C642.706 235.627 631.367 237.275 619.927 237.86C593.761 239.216 567.595 240.092 541.419 241.553C492.576 244.277 443.733 243.692 394.88 244.757C362.477 245.539 329.982 245.633 297.478 245.831C271.596 246.019 245.795 245.831 219.913 245.831L220.004 246.416Z" fill="#CAEDD5"/>
<path d="M181.9 143C181.433 143 181 142.833 180.6 142.5C180.2 142.167 180 141.583 180 140.75V110.25C180 109.383 180.3 108.717 180.9 108.25C181.5 107.783 182.2 107.55 183 107.55C183.667 107.55 184.3 107.683 184.9 107.95C185.5 108.217 186.067 108.783 186.6 109.65L202.95 135.6H203.2V110.35C203.2 109.283 203.433 108.55 203.9 108.15C204.367 107.75 204.817 107.55 205.25 107.55C205.717 107.55 206.15 107.717 206.55 108.05C206.95 108.383 207.15 108.967 207.15 109.8V140.1C207.15 141.067 206.85 141.8 206.25 142.3C205.683 142.767 205.017 143 204.25 143C203.417 143 202.7 142.833 202.1 142.5C201.5 142.133 201 141.633 200.6 141L184.25 114.95H183.95V140.2C183.95 141.267 183.717 142 183.25 142.4C182.817 142.8 182.367 143 181.9 143ZM245.308 125.3C245.308 126.4 245.208 127.717 245.008 129.25C244.808 130.75 244.408 132.3 243.808 133.9C243.242 135.5 242.392 136.983 241.258 138.35C240.158 139.717 238.692 140.833 236.858 141.7C235.025 142.567 232.742 143 230.008 143C227.275 143 224.992 142.567 223.158 141.7C221.325 140.833 219.858 139.717 218.758 138.35C217.658 136.983 216.808 135.5 216.208 133.9C215.642 132.3 215.258 130.75 215.058 129.25C214.892 127.717 214.808 126.4 214.808 125.3C214.808 124.233 214.892 122.95 215.058 121.45C215.258 119.917 215.642 118.35 216.208 116.75C216.808 115.15 217.658 113.65 218.758 112.25C219.858 110.85 221.325 109.717 223.158 108.85C224.992 107.983 227.275 107.55 230.008 107.55C232.742 107.55 235.025 107.983 236.858 108.85C238.692 109.717 240.158 110.85 241.258 112.25C242.392 113.65 243.242 115.15 243.808 116.75C244.408 118.35 244.808 119.917 245.008 121.45C245.208 122.95 245.308 124.233 245.308 125.3ZM239.658 125.3C239.658 124.3 239.592 123.133 239.458 121.8C239.358 120.467 239.125 119.133 238.758 117.8C238.425 116.433 237.908 115.167 237.208 114C236.508 112.833 235.575 111.9 234.408 111.2C233.242 110.467 231.775 110.1 230.008 110.1C228.275 110.1 226.825 110.467 225.658 111.2C224.525 111.9 223.608 112.833 222.908 114C222.208 115.167 221.675 116.433 221.308 117.8C220.975 119.133 220.742 120.467 220.608 121.8C220.508 123.133 220.458 124.3 220.458 125.3C220.458 126.3 220.508 127.467 220.608 128.8C220.742 130.1 220.975 131.433 221.308 132.8C221.675 134.167 222.208 135.433 222.908 136.6C223.608 137.733 224.525 138.667 225.658 139.4C226.825 140.1 228.275 140.45 230.008 140.45C231.775 140.45 233.242 140.1 234.408 139.4C235.575 138.667 236.508 137.733 237.208 136.6C237.908 135.433 238.425 134.167 238.758 132.8C239.125 131.433 239.358 130.1 239.458 128.8C239.592 127.467 239.658 126.3 239.658 125.3ZM272.049 116.65C271.116 116.65 270.399 116.417 269.899 115.95C269.399 115.483 269.149 114.683 269.149 113.55V111C269.016 110.967 268.883 110.933 268.749 110.9C268.616 110.833 268.466 110.783 268.299 110.75C266.766 110.317 265.083 110.1 263.249 110.1C261.683 110.1 260.399 110.433 259.399 111.1C258.433 111.733 257.716 112.533 257.249 113.5C256.816 114.433 256.599 115.367 256.599 116.3C256.599 117.433 256.799 118.367 257.199 119.1C257.633 119.833 258.349 120.483 259.349 121.05C260.349 121.583 261.683 122.167 263.349 122.8C266.283 123.833 268.716 124.783 270.649 125.65C272.583 126.517 274.033 127.533 274.999 128.7C275.999 129.833 276.499 131.367 276.499 133.3C276.499 135.133 275.949 136.783 274.849 138.25C273.783 139.717 272.216 140.883 270.149 141.75C268.083 142.583 265.533 143 262.499 143C260.966 143 259.299 142.833 257.499 142.5C255.733 142.167 254.266 141.783 253.099 141.35C252.366 141.05 251.849 140.767 251.549 140.5C251.283 140.2 251.149 139.683 251.149 138.95V135.95C251.149 134.35 251.866 133.55 253.299 133.55C254.266 133.55 254.983 133.783 255.449 134.25C255.949 134.717 256.199 135.533 256.199 136.7V139.4C257.166 139.733 258.149 140 259.149 140.2C260.183 140.367 261.233 140.45 262.299 140.45C264.199 140.45 265.783 140.133 267.049 139.5C268.316 138.833 269.266 138 269.899 137C270.566 135.967 270.899 134.917 270.899 133.85C270.899 132.717 270.599 131.767 269.999 131C269.399 130.233 268.466 129.55 267.199 128.95C265.966 128.317 264.399 127.65 262.499 126.95C260.199 126.083 258.183 125.25 256.449 124.45C254.749 123.617 253.416 122.6 252.449 121.4C251.483 120.2 250.999 118.6 250.999 116.6C250.999 113.933 252.033 111.767 254.099 110.1C256.166 108.4 259.099 107.55 262.899 107.55C264.833 107.55 266.533 107.7 267.999 108C269.499 108.3 270.883 108.633 272.149 109C272.916 109.233 273.449 109.5 273.749 109.8C274.049 110.1 274.199 110.617 274.199 111.35V114.25C274.199 115.85 273.483 116.65 272.049 116.65ZM303.592 116.65C302.659 116.65 301.942 116.417 301.442 115.95C300.942 115.483 300.692 114.683 300.692 113.55V111C300.559 110.967 300.426 110.933 300.292 110.9C300.159 110.833 300.009 110.783 299.842 110.75C298.309 110.317 296.626 110.1 294.792 110.1C293.226 110.1 291.942 110.433 290.942 111.1C289.976 111.733 289.259 112.533 288.792 113.5C288.359 114.433 288.142 115.367 288.142 116.3C288.142 117.433 288.342 118.367 288.742 119.1C289.176 119.833 289.892 120.483 290.892 121.05C291.892 121.583 293.226 122.167 294.892 122.8C297.826 123.833 300.259 124.783 302.192 125.65C304.126 126.517 305.576 127.533 306.542 128.7C307.542 129.833 308.042 131.367 308.042 133.3C308.042 135.133 307.492 136.783 306.392 138.25C305.326 139.717 303.759 140.883 301.692 141.75C299.626 142.583 297.076 143 294.042 143C292.509 143 290.842 142.833 289.042 142.5C287.276 142.167 285.809 141.783 284.642 141.35C283.909 141.05 283.392 140.767 283.092 140.5C282.826 140.2 282.692 139.683 282.692 138.95V135.95C282.692 134.35 283.409 133.55 284.842 133.55C285.809 133.55 286.526 133.783 286.992 134.25C287.492 134.717 287.742 135.533 287.742 136.7V139.4C288.709 139.733 289.692 140 290.692 140.2C291.726 140.367 292.776 140.45 293.842 140.45C295.742 140.45 297.326 140.133 298.592 139.5C299.859 138.833 300.809 138 301.442 137C302.109 135.967 302.442 134.917 302.442 133.85C302.442 132.717 302.142 131.767 301.542 131C300.942 130.233 300.009 129.55 298.742 128.95C297.509 128.317 295.942 127.65 294.042 126.95C291.742 126.083 289.726 125.25 287.992 124.45C286.292 123.617 284.959 122.6 283.992 121.4C283.026 120.2 282.542 118.6 282.542 116.6C282.542 113.933 283.576 111.767 285.642 110.1C287.709 108.4 290.642 107.55 294.442 107.55C296.376 107.55 298.076 107.7 299.542 108C301.042 108.3 302.426 108.633 303.692 109C304.459 109.233 304.992 109.5 305.292 109.8C305.592 110.1 305.742 110.617 305.742 111.35V114.25C305.742 115.85 305.026 116.65 303.592 116.65ZM344.185 125.3C344.185 126.4 344.085 127.717 343.885 129.25C343.685 130.75 343.285 132.3 342.685 133.9C342.118 135.5 341.268 136.983 340.135 138.35C339.035 139.717 337.568 140.833 335.735 141.7C333.902 142.567 331.618 143 328.885 143C326.152 143 323.868 142.567 322.035 141.7C320.202 140.833 318.735 139.717 317.635 138.35C316.535 136.983 315.685 135.5 315.085 133.9C314.518 132.3 314.135 130.75 313.935 129.25C313.768 127.717 313.685 126.4 313.685 125.3C313.685 124.233 313.768 122.95 313.935 121.45C314.135 119.917 314.518 118.35 315.085 116.75C315.685 115.15 316.535 113.65 317.635 112.25C318.735 110.85 320.202 109.717 322.035 108.85C323.868 107.983 326.152 107.55 328.885 107.55C331.618 107.55 333.902 107.983 335.735 108.85C337.568 109.717 339.035 110.85 340.135 112.25C341.268 113.65 342.118 115.15 342.685 116.75C343.285 118.35 343.685 119.917 343.885 121.45C344.085 122.95 344.185 124.233 344.185 125.3ZM338.535 125.3C338.535 124.3 338.468 123.133 338.335 121.8C338.235 120.467 338.002 119.133 337.635 117.8C337.302 116.433 336.785 115.167 336.085 114C335.385 112.833 334.452 111.9 333.285 111.2C332.118 110.467 330.652 110.1 328.885 110.1C327.152 110.1 325.702 110.467 324.535 111.2C323.402 111.9 322.485 112.833 321.785 114C321.085 115.167 320.552 116.433 320.185 117.8C319.852 119.133 319.618 120.467 319.485 121.8C319.385 123.133 319.335 124.3 319.335 125.3C319.335 126.3 319.385 127.467 319.485 128.8C319.618 130.1 319.852 131.433 320.185 132.8C320.552 134.167 321.085 135.433 321.785 136.6C322.485 137.733 323.402 138.667 324.535 139.4C325.702 140.1 327.152 140.45 328.885 140.45C330.652 140.45 332.118 140.1 333.285 139.4C334.452 138.667 335.385 137.733 336.085 136.6C336.785 135.433 337.302 134.167 337.635 132.8C338.002 131.433 338.235 130.1 338.335 128.8C338.468 127.467 338.535 126.3 338.535 125.3ZM380.766 110.2V140C380.766 141.2 380.5 142 379.966 142.4C379.466 142.8 378.7 143 377.666 143C376.133 143 375.366 142.167 375.366 140.5V110.2H367.866V113.75C367.866 114.95 367.616 115.8 367.116 116.3C366.65 116.767 365.933 117 364.966 117C363.533 117 362.816 116.167 362.816 114.5V109.4C362.816 108.633 363.066 108.133 363.566 107.9C364.1 107.667 364.85 107.55 365.816 107.55H390.316C391.283 107.55 392.016 107.667 392.516 107.9C393.05 108.133 393.316 108.633 393.316 109.4V114.5C393.316 116.167 392.6 117 391.166 117C390.233 117 389.516 116.767 389.016 116.3C388.516 115.8 388.266 114.95 388.266 113.75V110.2H380.766ZM396.836 143C396.203 143 395.786 142.883 395.586 142.65C395.419 142.383 395.336 142.1 395.336 141.8C395.336 141.433 395.453 141.1 395.686 140.8C395.953 140.5 396.503 140.35 397.336 140.35H401.836V110.2H397.336C396.503 110.2 395.953 110.05 395.686 109.75C395.453 109.45 395.336 109.117 395.336 108.75C395.336 108.45 395.419 108.183 395.586 107.95C395.786 107.683 396.203 107.55 396.836 107.55H412.236C412.903 107.55 413.319 107.683 413.486 107.95C413.653 108.183 413.736 108.45 413.736 108.75C413.736 109.117 413.619 109.45 413.386 109.75C413.153 110.05 412.603 110.2 411.736 110.2H407.236V140.35H411.736C412.603 140.35 413.153 140.5 413.386 140.8C413.619 141.1 413.736 141.433 413.736 141.8C413.736 142.1 413.653 142.383 413.486 142.65C413.319 142.883 412.903 143 412.236 143H396.836ZM451.546 143C449.546 143 448.546 141.717 448.546 139.15V114.95H448.196L437.896 141.15C437.396 142.383 436.696 143 435.796 143C434.863 143 434.146 142.383 433.646 141.15L424.046 114.95H423.696V140.2C423.696 141.267 423.463 142 422.996 142.4C422.563 142.8 422.113 143 421.646 143C421.179 143 420.746 142.833 420.346 142.5C419.946 142.167 419.746 141.583 419.746 140.75V110.2C419.746 109.333 420.079 108.683 420.746 108.25C421.413 107.783 422.146 107.55 422.946 107.55C423.579 107.55 424.279 107.733 425.046 108.1C425.813 108.433 426.363 109.05 426.696 109.95L436.296 136.5H436.546L446.996 110.2C447.363 109.2 447.929 108.517 448.696 108.15C449.496 107.75 450.279 107.55 451.046 107.55C452.746 107.55 453.596 108.433 453.596 110.2V140.5C453.596 141.433 453.446 142.083 453.146 142.45C452.846 142.817 452.313 143 451.546 143ZM483.744 116.25C482.81 116.25 482.094 116.017 481.594 115.55C481.094 115.05 480.844 114.2 480.844 113V110.2H468.994V123.3H479.494C479.96 123.3 480.31 123.45 480.544 123.75C480.777 124.017 480.894 124.333 480.894 124.7C480.894 125.033 480.744 125.35 480.444 125.65C480.177 125.917 479.86 126.05 479.494 126.05H468.994V140.35H481.594V137.55C481.594 136.35 481.844 135.517 482.344 135.05C482.844 134.55 483.56 134.3 484.494 134.3C485.927 134.3 486.644 135.133 486.644 136.8V141.15C486.644 141.883 486.377 142.383 485.844 142.65C485.344 142.883 484.61 143 483.644 143H465.894C464.36 143 463.594 142.167 463.594 140.5V110.05C463.594 108.383 464.36 107.55 465.894 107.55H482.894C483.86 107.55 484.594 107.667 485.094 107.9C485.627 108.133 485.894 108.633 485.894 109.4V113.75C485.894 115.417 485.177 116.25 483.744 116.25Z" fill="black"/>
</g>
</svg>
