<svg width="57" height="53" viewBox="0 0 57 53" fill="none" xmlns="http://www.w3.org/2000/svg">
<path d="M0.524902 35.6879C1.80799 37.1882 3.22962 38.5828 4.77378 39.856C4.76903 39.731 4.75003 39.6125 4.75003 39.4875C4.75932 37.261 5.4977 35.0893 6.86814 33.2576C8.23857 31.426 10.1769 30.0202 12.4284 29.2251C12.8425 29.0804 13.2046 28.8317 13.4737 28.5069C13.7429 28.1822 13.9084 27.7945 13.9516 27.3875C13.9948 26.9805 13.914 26.5704 13.7183 26.2036C13.5226 25.8368 13.2198 25.5278 12.844 25.3115C11.8172 24.7255 10.9705 23.9058 10.385 22.9309C9.79944 21.956 9.49473 20.8586 9.50003 19.7437C9.49485 18.4657 9.89428 17.2141 10.6492 16.143C11.4041 15.0719 12.4815 14.228 13.7489 13.7151C15.0163 13.2023 16.4184 13.0429 17.7826 13.2565C19.1468 13.4701 20.4137 14.0475 21.4273 14.9175C22.912 14.1303 24.5391 13.5989 26.2295 13.349C25.303 12.1533 24.1254 11.1422 22.7669 10.3758C21.4085 9.60948 19.8969 9.10353 18.3222 8.88816C16.7476 8.67279 15.1421 8.75239 13.6014 9.12224C12.0608 9.49208 10.6165 10.1446 9.35467 11.0409C8.09281 11.9372 7.03918 13.0589 6.25657 14.3393C5.47396 15.6197 4.97838 17.0325 4.79936 18.4935C4.62034 19.9545 4.76153 21.4338 5.21454 22.8434C5.66754 24.2529 6.42309 25.5638 7.43615 26.6979C4.01806 28.8115 1.55879 32.0105 0.524902 35.6879ZM56.4752 35.6879C55.4423 32.0089 52.9829 28.8082 49.5639 26.6935C50.5737 25.5591 51.3262 24.2487 51.7767 22.8402C52.2272 21.4317 52.3665 19.954 52.1864 18.4948C52.0063 17.0356 51.5103 15.6247 50.7281 14.3461C49.9459 13.0675 48.8933 11.9472 47.6329 11.0518C46.3726 10.1565 44.9302 9.5043 43.3916 9.13412C41.8529 8.76394 40.2494 8.68329 38.6763 8.89697C37.1032 9.11065 35.5927 9.6143 34.2346 10.378C32.8765 11.1417 31.6984 12.1498 30.7705 13.3424C32.4609 13.5922 34.0881 14.1237 35.5728 14.9109C36.3005 14.2927 37.1598 13.8215 38.0957 13.5275C39.0317 13.2334 40.0238 13.1229 41.0087 13.2031C41.9935 13.2833 42.9494 13.5523 43.8153 13.993C44.6812 14.4337 45.438 15.0364 46.0375 15.7626C46.6369 16.4888 47.0658 17.3226 47.2966 18.2105C47.5275 19.0985 47.5552 20.0211 47.3782 20.9196C47.2011 21.818 46.8231 22.6725 46.2683 23.4283C45.7135 24.1841 44.9941 24.8248 44.156 25.3093C43.7803 25.5256 43.4774 25.8346 43.2817 26.2014C43.086 26.5682 43.0052 26.9783 43.0484 27.3853C43.0917 27.7923 43.2572 28.18 43.5263 28.5047C43.7955 28.8295 44.1576 29.0782 44.5717 29.2229C46.8235 30.0182 48.7621 31.4243 50.1326 33.2563C51.5031 35.0884 52.2412 37.2606 52.25 39.4875C52.25 39.6125 52.231 39.731 52.2263 39.8538C53.7703 38.5813 55.1919 37.1874 56.4752 35.6879Z" fill="#22304A"/>
<path d="M45.0315 40.273C44.7735 38.0217 43.9836 35.8502 42.7176 33.9117C41.4515 31.9732 39.7403 30.315 37.7046 29.0542C39.4508 27.0965 40.401 24.6365 40.3907 22.1C40.3897 20.3426 39.9314 18.6111 39.0546 17.0514C38.1778 15.4917 36.908 14.1494 35.3523 13.1376C33.7966 12.1259 32.0005 11.4742 30.1152 11.2375C28.2299 11.0008 26.3106 11.1859 24.519 11.7775C22.7273 12.369 21.1158 13.3495 19.82 14.6364C18.5243 15.9233 17.5823 17.479 17.0734 19.1724C16.5645 20.8658 16.5036 22.6474 16.8957 24.3671C17.2879 26.0868 18.1217 27.6943 19.3269 29.0542C17.2912 30.315 15.58 31.9732 14.3139 33.9117C13.0479 35.8502 12.258 38.0217 12 40.273C13.5077 40.9965 15.0697 41.619 16.674 42.1355C16.6692 42.0368 16.6407 41.9447 16.6407 41.8438C16.6507 39.6174 17.3893 37.4459 18.7597 35.6144C20.13 33.7829 22.068 32.377 24.3191 31.5814C24.7338 31.4369 25.0965 31.1882 25.3661 30.8633C25.6357 30.5384 25.8015 30.1502 25.8447 29.7428C25.888 29.3354 25.8069 28.9249 25.6108 28.5578C25.4146 28.1907 25.1112 27.8816 24.7347 27.6656C23.7076 27.0804 22.8606 26.2612 22.2751 25.2866C21.6895 24.312 21.3849 23.2147 21.3907 22.1C21.3907 20.3546 22.1414 18.6806 23.4776 17.4464C24.8138 16.2121 26.6261 15.5188 28.5157 15.5188C30.4054 15.5188 32.2177 16.2121 33.5539 17.4464C34.8901 18.6806 35.6407 20.3546 35.6407 22.1C35.6466 23.2147 35.342 24.312 34.7564 25.2866C34.1709 26.2612 33.3238 27.0804 32.2967 27.6656C31.9203 27.8816 31.6169 28.1907 31.4207 28.5578C31.2246 28.9249 31.1435 29.3354 31.1868 29.7428C31.23 30.1502 31.3958 30.5384 31.6654 30.8633C31.935 31.1882 32.2977 31.4369 32.7124 31.5814C34.9635 32.377 36.9015 33.7829 38.2718 35.6144C39.6422 37.4459 40.3808 39.6174 40.3907 41.8438C40.3907 41.9447 40.3622 42.0368 40.3599 42.1355C41.9634 41.6189 43.5246 40.9965 45.0315 40.273Z" fill="#22304A"/>
</svg>
