<svg width="57" height="49" viewBox="0 0 57 49" fill="none" xmlns="http://www.w3.org/2000/svg">
<path d="M45.2857 13.0294H37.1429V10.7027C37.1429 8.85152 36.285 7.07611 34.7579 5.7671C33.2308 4.45808 31.1596 3.72269 29 3.72269C26.8404 3.72269 24.7692 4.45808 23.2421 5.7671C21.715 7.07611 20.8571 8.85152 20.8571 10.7027V13.0294H12.7143C11.9944 13.0294 11.304 13.2746 10.795 13.7109C10.286 14.1472 10 14.739 10 15.3561V43.2763C10 43.8934 10.286 44.4852 10.795 44.9216C11.304 45.3579 11.9944 45.603 12.7143 45.603H45.2857C46.0056 45.603 46.696 45.3579 47.205 44.9216C47.714 44.4852 48 43.8934 48 43.2763V15.3561C48 14.739 47.714 14.1472 47.205 13.7109C46.696 13.2746 46.0056 13.0294 45.2857 13.0294ZM26.2857 10.7027C26.2857 10.0857 26.5717 9.49387 27.0807 9.05753C27.5897 8.62119 28.2801 8.37606 29 8.37606C29.7199 8.37606 30.4103 8.62119 30.9193 9.05753C31.4283 9.49387 31.7143 10.0857 31.7143 10.7027V13.0294H26.2857V10.7027ZM42.5714 40.9497H15.4286V17.6828H20.8571V21.1728C20.8571 21.7899 21.1431 22.3817 21.6521 22.818C22.1612 23.2544 22.8516 23.4995 23.5714 23.4995C24.2913 23.4995 24.9817 23.2544 25.4907 22.818C25.9997 22.3817 26.2857 21.7899 26.2857 21.1728V17.6828H31.7143V21.1728C31.7143 21.7899 32.0003 22.3817 32.5093 22.818C33.0183 23.2544 33.7087 23.4995 34.4286 23.4995C35.1484 23.4995 35.8388 23.2544 36.3479 22.818C36.8569 22.3817 37.1429 21.7899 37.1429 21.1728V17.6828H42.5714V40.9497Z" fill="#22304A"/>
</svg>
