<svg width="31" height="30" viewBox="0 0 31 30" fill="none" xmlns="http://www.w3.org/2000/svg">
<g clip-path="url(#clip0_226_41)">
<path d="M29.0655 26.98H29.3494L28.8053 26.1575C29.138 26.1575 29.3144 25.9463 29.3169 25.6875C29.3169 25.6775 29.3169 25.6663 29.3156 25.6563C29.3156 25.3038 29.103 25.135 28.6664 25.135H27.9609V26.98H28.2261V26.1763H28.5526L29.0655 26.98ZM28.5338 25.9675H28.2261V25.3438H28.6164C28.8178 25.3438 29.0479 25.3763 29.0479 25.64C29.0479 25.9425 28.8165 25.9675 28.5338 25.9675Z" fill="black"/>
<path d="M21.9217 23.8412H18.1604V17.955C18.1604 16.5512 18.1354 14.745 16.204 14.745C14.2452 14.745 13.9449 16.2737 13.9449 17.8537V23.8412H10.1848V11.7362H13.7961V13.39H13.8461C14.5829 12.1325 15.9513 11.3812 17.4086 11.435C21.2213 11.435 21.923 13.9412 21.923 17.2L21.9217 23.8412ZM5.94064 10.0812C4.7348 10.0812 3.75787 9.10497 3.75787 7.89997C3.75787 6.69497 4.7348 5.71872 5.94064 5.71872C7.14648 5.71872 8.12341 6.69497 8.12341 7.89997C8.12341 9.10497 7.14648 10.0812 5.94064 10.0812ZM7.8207 23.8412H4.05558V11.7362H7.8207V23.8412ZM23.7968 2.22872H2.16552C1.14356 2.21747 0.305477 3.03622 0.292969 4.05747V25.7625C0.305477 26.785 1.14356 27.6037 2.16552 27.5925H23.7968C24.8213 27.605 25.6631 26.7862 25.6768 25.7625V4.05622C25.6618 3.03247 24.82 2.21372 23.7968 2.22747" fill="black"/>
<path d="M28.5663 24.3137C27.6107 24.3225 26.8426 25.105 26.8526 26.06C26.8614 27.015 27.6444 27.7825 28.6001 27.7725C29.5558 27.7637 30.3238 26.9812 30.3138 26.0262C30.305 25.0837 29.542 24.3225 28.6001 24.3137H28.5663ZM28.6064 27.5737C27.7683 27.5875 27.0378 26.9212 27.024 26.0837C27.0102 25.2462 27.6782 24.5562 28.5163 24.5425C29.3544 24.5287 30.0449 25.1962 30.0586 26.0337C30.0586 26.0425 30.0586 26.05 30.0586 26.0587C30.0761 26.8775 29.4257 27.5562 28.6064 27.5737H28.5676H28.6064Z" fill="black"/>
</g>
<defs>
<clipPath id="clip0_226_41">
<rect width="30.0208" height="30" fill="white" transform="translate(0.292969)"/>
</clipPath>
</defs>
</svg>
