<svg width="466" height="493" viewBox="0 0 466 493" fill="none" xmlns="http://www.w3.org/2000/svg">
<mask id="mask0_325_29" style="mask-type:luminance" maskUnits="userSpaceOnUse" x="0" y="0" width="466" height="493">
<path d="M0 0H466V493H0V0Z" fill="white"/>
</mask>
<g mask="url(#mask0_325_29)">
<path d="M465.293 0.0176086C465.771 0.0176086 466.155 0.535672 466.155 1.16985C466.155 1.20558 466.155 1.24131 466.155 1.27704C464.646 43.5528 450.718 82.8453 424.352 119.172C424.339 119.19 424.325 119.208 424.312 119.226C392.556 160.716 359.91 182.706 326.382 185.199C323.215 186.905 317.798 187.762 310.137 187.762C282.875 187.762 226.505 177.035 141.02 155.58C137.543 155.222 134.322 155.035 131.364 155.035C121.89 155.035 115.112 156.866 111.042 160.519C111.022 160.537 111.009 160.555 110.988 160.564C101.629 168.853 98.1794 183.359 100.645 204.063C122.504 292.572 132.193 343.092 129.72 355.65C130.286 383.447 126.081 405.858 117.113 422.883C117.093 422.927 117.073 422.963 117.046 422.999H117.053C96.0636 459.495 57.3673 482.755 0.97701 492.794C0.936583 492.794 0.902891 492.803 0.862464 492.803C0.6738 492.803 0.485137 492.714 0.3369 492.562C0.154974 492.375 0.03369 492.098 0.006738 491.794C4.31336e-07 491.749 0 491.705 0 491.651V1.16985C0 0.535672 0.384066 0.0176086 0.862464 0.0176086H465.293Z" fill="#415A77"/>
</g>
</svg>
