<svg width="805" height="280" viewBox="0 0 805 280" fill="none" xmlns="http://www.w3.org/2000/svg">
<path d="M991.796 76.1823C994.734 67.1614 993.645 58.2396 988.53 49.427C986.794 46.6406 984.673 43.9166 982.178 41.2604C979.683 38.5989 976.824 36.026 973.614 33.5312C970.393 31.0416 966.843 28.6562 962.964 26.375C959.073 24.0937 954.888 21.9375 950.397 19.901C945.916 17.8645 941.164 15.9687 936.151 14.2135C931.126 12.4583 925.886 10.8593 920.419 9.41663C914.963 7.96872 909.314 6.68747 903.496 5.57809C897.666 4.46351 891.722 3.52601 885.632 2.76038C852.024 -1.25003 816.636 0.281217 782.166 2.33851C725.681 5.60413 668.47 9.51559 617.237 21.0677C549.591 36.4062 498.062 63.8489 431.551 80.1927C421.195 82.9895 410.272 85.2135 398.805 86.8698C387.338 88.5208 375.61 89.5625 363.621 89.9843C326.248 90.6354 291.347 82.4114 255.607 77.4843C116.187 58.1354 -38.0809 100.26 2.70629 172.443C5.87082 177.839 9.72723 183.125 14.2869 188.307C18.8352 193.49 24.0413 198.531 29.9167 203.427C35.792 208.318 42.2799 213.036 49.3915 217.573C56.4919 222.109 64.1707 226.432 72.4166 230.542C80.6512 234.656 89.3961 238.526 98.6515 242.156C107.907 245.786 117.605 249.146 127.733 252.24C137.873 255.333 148.377 258.135 159.243 260.651C170.109 263.161 181.269 265.37 192.725 267.266C204.238 269.062 215.943 270.536 227.841 271.687C239.739 272.839 251.74 273.656 263.853 274.146C275.967 274.635 288.103 274.786 300.251 274.604C312.41 274.422 324.49 273.906 336.513 273.057C348.524 272.208 360.388 271.031 372.105 269.531C383.81 268.026 395.278 266.203 406.518 264.068C417.747 261.932 428.658 259.49 439.263 256.75C449.857 254.01 460.054 250.99 469.854 247.687C483.646 241.719 506.172 242.401 523.084 246.38C539.995 250.365 553.141 256.859 568.067 262.24C574.226 264.464 580.68 266.484 587.44 268.312C594.189 270.135 601.176 271.75 608.401 273.146C615.626 274.542 623.01 275.708 630.575 276.651C638.141 277.594 645.808 278.302 653.578 278.771C661.336 279.245 669.139 279.474 676.977 279.469C684.815 279.458 692.618 279.208 700.376 278.724C708.146 278.234 715.802 277.516 723.356 276.557C730.91 275.599 738.294 274.417 745.496 273.005C752.71 271.594 759.674 269.969 766.412 268.13C773.149 266.286 779.58 264.25 785.728 262.016C791.864 259.781 797.66 257.37 803.093 254.781C808.537 252.187 813.573 249.443 818.212 246.542C822.851 243.646 827.048 240.615 830.802 237.458C834.568 234.302 837.846 231.042 840.648 227.682C843.461 224.323 845.763 220.891 847.578 217.391C849.381 213.891 850.674 210.349 851.457 206.771C855.574 187.812 845.627 167.318 865.022 150.479C883.567 134.427 923.436 126.5 951.361 113.609C956.771 111.078 961.716 108.365 966.196 105.474C970.677 102.583 974.624 99.5468 978.061 96.3698C981.497 93.1927 984.367 89.9114 986.669 86.526C988.972 83.1406 990.685 79.6927 991.796 76.1823Z" fill="#CADAED"/>
<path d="M231.9 184C231.433 184 231 183.833 230.6 183.5C230.2 183.167 230 182.583 230 181.75V151.25C230 150.383 230.3 149.717 230.9 149.25C231.5 148.783 232.2 148.55 233 148.55C233.667 148.55 234.3 148.683 234.9 148.95C235.5 149.217 236.067 149.783 236.6 150.65L252.95 176.6H253.2V151.35C253.2 150.283 253.433 149.55 253.9 149.15C254.367 148.75 254.817 148.55 255.25 148.55C255.717 148.55 256.15 148.717 256.55 149.05C256.95 149.383 257.15 149.967 257.15 150.8V181.1C257.15 182.067 256.85 182.8 256.25 183.3C255.683 183.767 255.017 184 254.25 184C253.417 184 252.7 183.833 252.1 183.5C251.5 183.133 251 182.633 250.6 182L234.25 155.95H233.95V181.2C233.95 182.267 233.717 183 233.25 183.4C232.817 183.8 232.367 184 231.9 184ZM295.308 166.3C295.308 167.4 295.208 168.717 295.008 170.25C294.808 171.75 294.408 173.3 293.808 174.9C293.242 176.5 292.392 177.983 291.258 179.35C290.158 180.717 288.692 181.833 286.858 182.7C285.025 183.567 282.742 184 280.008 184C277.275 184 274.992 183.567 273.158 182.7C271.325 181.833 269.858 180.717 268.758 179.35C267.658 177.983 266.808 176.5 266.208 174.9C265.642 173.3 265.258 171.75 265.058 170.25C264.892 168.717 264.808 167.4 264.808 166.3C264.808 165.233 264.892 163.95 265.058 162.45C265.258 160.917 265.642 159.35 266.208 157.75C266.808 156.15 267.658 154.65 268.758 153.25C269.858 151.85 271.325 150.717 273.158 149.85C274.992 148.983 277.275 148.55 280.008 148.55C282.742 148.55 285.025 148.983 286.858 149.85C288.692 150.717 290.158 151.85 291.258 153.25C292.392 154.65 293.242 156.15 293.808 157.75C294.408 159.35 294.808 160.917 295.008 162.45C295.208 163.95 295.308 165.233 295.308 166.3ZM289.658 166.3C289.658 165.3 289.592 164.133 289.458 162.8C289.358 161.467 289.125 160.133 288.758 158.8C288.425 157.433 287.908 156.167 287.208 155C286.508 153.833 285.575 152.9 284.408 152.2C283.242 151.467 281.775 151.1 280.008 151.1C278.275 151.1 276.825 151.467 275.658 152.2C274.525 152.9 273.608 153.833 272.908 155C272.208 156.167 271.675 157.433 271.308 158.8C270.975 160.133 270.742 161.467 270.608 162.8C270.508 164.133 270.458 165.3 270.458 166.3C270.458 167.3 270.508 168.467 270.608 169.8C270.742 171.1 270.975 172.433 271.308 173.8C271.675 175.167 272.208 176.433 272.908 177.6C273.608 178.733 274.525 179.667 275.658 180.4C276.825 181.1 278.275 181.45 280.008 181.45C281.775 181.45 283.242 181.1 284.408 180.4C285.575 179.667 286.508 178.733 287.208 177.6C287.908 176.433 288.425 175.167 288.758 173.8C289.125 172.433 289.358 171.1 289.458 169.8C289.592 168.467 289.658 167.3 289.658 166.3ZM322.049 157.65C321.116 157.65 320.399 157.417 319.899 156.95C319.399 156.483 319.149 155.683 319.149 154.55V152C319.016 151.967 318.883 151.933 318.749 151.9C318.616 151.833 318.466 151.783 318.299 151.75C316.766 151.317 315.083 151.1 313.249 151.1C311.683 151.1 310.399 151.433 309.399 152.1C308.433 152.733 307.716 153.533 307.249 154.5C306.816 155.433 306.599 156.367 306.599 157.3C306.599 158.433 306.799 159.367 307.199 160.1C307.633 160.833 308.349 161.483 309.349 162.05C310.349 162.583 311.683 163.167 313.349 163.8C316.283 164.833 318.716 165.783 320.649 166.65C322.583 167.517 324.033 168.533 324.999 169.7C325.999 170.833 326.499 172.367 326.499 174.3C326.499 176.133 325.949 177.783 324.849 179.25C323.783 180.717 322.216 181.883 320.149 182.75C318.083 183.583 315.533 184 312.499 184C310.966 184 309.299 183.833 307.499 183.5C305.733 183.167 304.266 182.783 303.099 182.35C302.366 182.05 301.849 181.767 301.549 181.5C301.283 181.2 301.149 180.683 301.149 179.95V176.95C301.149 175.35 301.866 174.55 303.299 174.55C304.266 174.55 304.983 174.783 305.449 175.25C305.949 175.717 306.199 176.533 306.199 177.7V180.4C307.166 180.733 308.149 181 309.149 181.2C310.183 181.367 311.233 181.45 312.299 181.45C314.199 181.45 315.783 181.133 317.049 180.5C318.316 179.833 319.266 179 319.899 178C320.566 176.967 320.899 175.917 320.899 174.85C320.899 173.717 320.599 172.767 319.999 172C319.399 171.233 318.466 170.55 317.199 169.95C315.966 169.317 314.399 168.65 312.499 167.95C310.199 167.083 308.183 166.25 306.449 165.45C304.749 164.617 303.416 163.6 302.449 162.4C301.483 161.2 300.999 159.6 300.999 157.6C300.999 154.933 302.033 152.767 304.099 151.1C306.166 149.4 309.099 148.55 312.899 148.55C314.833 148.55 316.533 148.7 317.999 149C319.499 149.3 320.883 149.633 322.149 150C322.916 150.233 323.449 150.5 323.749 150.8C324.049 151.1 324.199 151.617 324.199 152.35V155.25C324.199 156.85 323.483 157.65 322.049 157.65ZM353.592 157.65C352.659 157.65 351.942 157.417 351.442 156.95C350.942 156.483 350.692 155.683 350.692 154.55V152C350.559 151.967 350.426 151.933 350.292 151.9C350.159 151.833 350.009 151.783 349.842 151.75C348.309 151.317 346.626 151.1 344.792 151.1C343.226 151.1 341.942 151.433 340.942 152.1C339.976 152.733 339.259 153.533 338.792 154.5C338.359 155.433 338.142 156.367 338.142 157.3C338.142 158.433 338.342 159.367 338.742 160.1C339.176 160.833 339.892 161.483 340.892 162.05C341.892 162.583 343.226 163.167 344.892 163.8C347.826 164.833 350.259 165.783 352.192 166.65C354.126 167.517 355.576 168.533 356.542 169.7C357.542 170.833 358.042 172.367 358.042 174.3C358.042 176.133 357.492 177.783 356.392 179.25C355.326 180.717 353.759 181.883 351.692 182.75C349.626 183.583 347.076 184 344.042 184C342.509 184 340.842 183.833 339.042 183.5C337.276 183.167 335.809 182.783 334.642 182.35C333.909 182.05 333.392 181.767 333.092 181.5C332.826 181.2 332.692 180.683 332.692 179.95V176.95C332.692 175.35 333.409 174.55 334.842 174.55C335.809 174.55 336.526 174.783 336.992 175.25C337.492 175.717 337.742 176.533 337.742 177.7V180.4C338.709 180.733 339.692 181 340.692 181.2C341.726 181.367 342.776 181.45 343.842 181.45C345.742 181.45 347.326 181.133 348.592 180.5C349.859 179.833 350.809 179 351.442 178C352.109 176.967 352.442 175.917 352.442 174.85C352.442 173.717 352.142 172.767 351.542 172C350.942 171.233 350.009 170.55 348.742 169.95C347.509 169.317 345.942 168.65 344.042 167.95C341.742 167.083 339.726 166.25 337.992 165.45C336.292 164.617 334.959 163.6 333.992 162.4C333.026 161.2 332.542 159.6 332.542 157.6C332.542 154.933 333.576 152.767 335.642 151.1C337.709 149.4 340.642 148.55 344.442 148.55C346.376 148.55 348.076 148.7 349.542 149C351.042 149.3 352.426 149.633 353.692 150C354.459 150.233 354.992 150.5 355.292 150.8C355.592 151.1 355.742 151.617 355.742 152.35V155.25C355.742 156.85 355.026 157.65 353.592 157.65ZM365.697 181.35C365.264 182.517 364.764 183.25 364.197 183.55C363.63 183.85 363.114 184 362.647 184C362.18 184 361.83 183.867 361.597 183.6C361.397 183.333 361.297 183.017 361.297 182.65C361.297 182.25 361.38 181.833 361.547 181.4L373.297 149.75C373.464 149.35 373.797 149.05 374.297 148.85C374.83 148.65 375.414 148.55 376.047 148.55C376.714 148.55 377.347 148.667 377.947 148.9C378.58 149.1 378.964 149.433 379.097 149.9L390.547 181.6C390.58 181.733 390.597 181.867 390.597 182C390.63 182.1 390.647 182.217 390.647 182.35C390.647 182.783 390.497 183.167 390.197 183.5C389.93 183.833 389.43 184 388.697 184C388.397 184 387.997 183.95 387.497 183.85C387.03 183.717 386.564 183.467 386.097 183.1C385.63 182.7 385.247 182.117 384.947 181.35L382.297 174.5H368.247L365.697 181.35ZM375.497 154.45H375.197L369.047 171.9H381.547L375.497 154.45ZM443.196 184C441.196 184 440.196 182.717 440.196 180.15V155.95H439.846L429.546 182.15C429.046 183.383 428.346 184 427.446 184C426.513 184 425.796 183.383 425.296 182.15L415.696 155.95H415.346V181.2C415.346 182.267 415.113 183 414.646 183.4C414.213 183.8 413.763 184 413.296 184C412.83 184 412.396 183.833 411.996 183.5C411.596 183.167 411.396 182.583 411.396 181.75V151.2C411.396 150.333 411.73 149.683 412.396 149.25C413.063 148.783 413.796 148.55 414.596 148.55C415.23 148.55 415.93 148.733 416.696 149.1C417.463 149.433 418.013 150.05 418.346 150.95L427.946 177.5H428.196L438.646 151.2C439.013 150.2 439.58 149.517 440.346 149.15C441.146 148.75 441.93 148.55 442.696 148.55C444.396 148.55 445.246 149.433 445.246 151.2V181.5C445.246 182.433 445.096 183.083 444.796 183.45C444.496 183.817 443.963 184 443.196 184ZM452.744 184C452.111 184 451.694 183.883 451.494 183.65C451.327 183.383 451.244 183.1 451.244 182.8C451.244 182.433 451.361 182.1 451.594 181.8C451.861 181.5 452.411 181.35 453.244 181.35H457.744V151.2H453.244C452.411 151.2 451.861 151.05 451.594 150.75C451.361 150.45 451.244 150.117 451.244 149.75C451.244 149.45 451.327 149.183 451.494 148.95C451.694 148.683 452.111 148.55 452.744 148.55H468.144C468.811 148.55 469.227 148.683 469.394 148.95C469.561 149.183 469.644 149.45 469.644 149.75C469.644 150.117 469.527 150.45 469.294 150.75C469.061 151.05 468.511 151.2 467.644 151.2H463.144V181.35H467.644C468.511 181.35 469.061 181.5 469.294 181.8C469.527 182.1 469.644 182.433 469.644 182.8C469.644 183.1 469.561 183.383 469.394 183.65C469.227 183.883 468.811 184 468.144 184H452.744ZM494.754 157.65C493.821 157.65 493.104 157.417 492.604 156.95C492.104 156.483 491.854 155.683 491.854 154.55V152C491.721 151.967 491.588 151.933 491.454 151.9C491.321 151.833 491.171 151.783 491.004 151.75C489.471 151.317 487.788 151.1 485.954 151.1C484.388 151.1 483.104 151.433 482.104 152.1C481.138 152.733 480.421 153.533 479.954 154.5C479.521 155.433 479.304 156.367 479.304 157.3C479.304 158.433 479.504 159.367 479.904 160.1C480.338 160.833 481.054 161.483 482.054 162.05C483.054 162.583 484.388 163.167 486.054 163.8C488.988 164.833 491.421 165.783 493.354 166.65C495.288 167.517 496.738 168.533 497.704 169.7C498.704 170.833 499.204 172.367 499.204 174.3C499.204 176.133 498.654 177.783 497.554 179.25C496.488 180.717 494.921 181.883 492.854 182.75C490.788 183.583 488.238 184 485.204 184C483.671 184 482.004 183.833 480.204 183.5C478.438 183.167 476.971 182.783 475.804 182.35C475.071 182.05 474.554 181.767 474.254 181.5C473.988 181.2 473.854 180.683 473.854 179.95V176.95C473.854 175.35 474.571 174.55 476.004 174.55C476.971 174.55 477.688 174.783 478.154 175.25C478.654 175.717 478.904 176.533 478.904 177.7V180.4C479.871 180.733 480.854 181 481.854 181.2C482.888 181.367 483.938 181.45 485.004 181.45C486.904 181.45 488.488 181.133 489.754 180.5C491.021 179.833 491.971 179 492.604 178C493.271 176.967 493.604 175.917 493.604 174.85C493.604 173.717 493.304 172.767 492.704 172C492.104 171.233 491.171 170.55 489.904 169.95C488.671 169.317 487.104 168.65 485.204 167.95C482.904 167.083 480.888 166.25 479.154 165.45C477.454 164.617 476.121 163.6 475.154 162.4C474.188 161.2 473.704 159.6 473.704 157.6C473.704 154.933 474.738 152.767 476.804 151.1C478.871 149.4 481.804 148.55 485.604 148.55C487.538 148.55 489.238 148.7 490.704 149C492.204 149.3 493.588 149.633 494.854 150C495.621 150.233 496.154 150.5 496.454 150.8C496.754 151.1 496.904 151.617 496.904 152.35V155.25C496.904 156.85 496.188 157.65 494.754 157.65ZM526.297 157.65C525.364 157.65 524.647 157.417 524.147 156.95C523.647 156.483 523.397 155.683 523.397 154.55V152C523.264 151.967 523.131 151.933 522.997 151.9C522.864 151.833 522.714 151.783 522.547 151.75C521.014 151.317 519.331 151.1 517.497 151.1C515.931 151.1 514.647 151.433 513.647 152.1C512.681 152.733 511.964 153.533 511.497 154.5C511.064 155.433 510.847 156.367 510.847 157.3C510.847 158.433 511.047 159.367 511.447 160.1C511.881 160.833 512.597 161.483 513.597 162.05C514.597 162.583 515.931 163.167 517.597 163.8C520.531 164.833 522.964 165.783 524.897 166.65C526.831 167.517 528.281 168.533 529.247 169.7C530.247 170.833 530.747 172.367 530.747 174.3C530.747 176.133 530.197 177.783 529.097 179.25C528.031 180.717 526.464 181.883 524.397 182.75C522.331 183.583 519.781 184 516.747 184C515.214 184 513.547 183.833 511.747 183.5C509.981 183.167 508.514 182.783 507.347 182.35C506.614 182.05 506.097 181.767 505.797 181.5C505.531 181.2 505.397 180.683 505.397 179.95V176.95C505.397 175.35 506.114 174.55 507.547 174.55C508.514 174.55 509.231 174.783 509.697 175.25C510.197 175.717 510.447 176.533 510.447 177.7V180.4C511.414 180.733 512.397 181 513.397 181.2C514.431 181.367 515.481 181.45 516.547 181.45C518.447 181.45 520.031 181.133 521.297 180.5C522.564 179.833 523.514 179 524.147 178C524.814 176.967 525.147 175.917 525.147 174.85C525.147 173.717 524.847 172.767 524.247 172C523.647 171.233 522.714 170.55 521.447 169.95C520.214 169.317 518.647 168.65 516.747 167.95C514.447 167.083 512.431 166.25 510.697 165.45C508.997 164.617 507.664 163.6 506.697 162.4C505.731 161.2 505.247 159.6 505.247 157.6C505.247 154.933 506.281 152.767 508.347 151.1C510.414 149.4 513.347 148.55 517.147 148.55C519.081 148.55 520.781 148.7 522.247 149C523.747 149.3 525.131 149.633 526.397 150C527.164 150.233 527.697 150.5 527.997 150.8C528.297 151.1 528.447 151.617 528.447 152.35V155.25C528.447 156.85 527.731 157.65 526.297 157.65ZM538.402 181.35C537.969 182.517 537.469 183.25 536.902 183.55C536.335 183.85 535.819 184 535.352 184C534.885 184 534.535 183.867 534.302 183.6C534.102 183.333 534.002 183.017 534.002 182.65C534.002 182.25 534.085 181.833 534.252 181.4L546.002 149.75C546.169 149.35 546.502 149.05 547.002 148.85C547.535 148.65 548.119 148.55 548.752 148.55C549.419 148.55 550.052 148.667 550.652 148.9C551.285 149.1 551.669 149.433 551.802 149.9L563.252 181.6C563.285 181.733 563.302 181.867 563.302 182C563.335 182.1 563.352 182.217 563.352 182.35C563.352 182.783 563.202 183.167 562.902 183.5C562.635 183.833 562.135 184 561.402 184C561.102 184 560.702 183.95 560.202 183.85C559.735 183.717 559.269 183.467 558.802 183.1C558.335 182.7 557.952 182.117 557.652 181.35L555.002 174.5H540.952L538.402 181.35ZM548.202 154.45H547.902L541.752 171.9H554.252L548.202 154.45ZM545.352 143.35C544.819 143.35 544.435 143.467 544.202 143.7C543.969 143.9 543.802 144.133 543.702 144.4C543.602 144.667 543.469 144.917 543.302 145.15C543.135 145.35 542.819 145.45 542.352 145.45C541.785 145.45 541.402 145.35 541.202 145.15C541.035 144.95 540.952 144.717 540.952 144.45C540.952 143.85 541.135 143.183 541.502 142.45C541.902 141.717 542.469 141.083 543.202 140.55C543.969 140.017 544.885 139.75 545.952 139.75C546.219 139.783 546.602 139.85 547.102 139.95C547.602 140.017 548.269 140.2 549.102 140.5C549.669 140.733 550.185 140.95 550.652 141.15C551.152 141.317 551.669 141.4 552.202 141.4C552.669 141.4 553.002 141.317 553.202 141.15C553.402 140.983 553.569 140.783 553.702 140.55C553.869 140.283 554.035 140.017 554.202 139.75C554.369 139.483 554.735 139.35 555.302 139.35C555.702 139.35 555.985 139.45 556.152 139.65C556.319 139.817 556.402 140.033 556.402 140.3C556.402 140.733 556.285 141.183 556.052 141.65C555.519 142.883 554.869 143.75 554.102 144.25C553.335 144.75 552.569 145 551.802 145C551.135 145 550.535 144.917 550.002 144.75C549.469 144.583 548.919 144.383 548.352 144.15C547.552 143.85 546.935 143.65 546.502 143.55C546.069 143.417 545.685 143.35 545.352 143.35ZM596.773 166.3C596.773 167.4 596.673 168.717 596.473 170.25C596.273 171.75 595.873 173.3 595.273 174.9C594.706 176.5 593.856 177.983 592.723 179.35C591.623 180.717 590.156 181.833 588.323 182.7C586.49 183.567 584.206 184 581.473 184C578.74 184 576.456 183.567 574.623 182.7C572.79 181.833 571.323 180.717 570.223 179.35C569.123 177.983 568.273 176.5 567.673 174.9C567.106 173.3 566.723 171.75 566.523 170.25C566.356 168.717 566.273 167.4 566.273 166.3C566.273 165.233 566.356 163.95 566.523 162.45C566.723 160.917 567.106 159.35 567.673 157.75C568.273 156.15 569.123 154.65 570.223 153.25C571.323 151.85 572.79 150.717 574.623 149.85C576.456 148.983 578.74 148.55 581.473 148.55C584.206 148.55 586.49 148.983 588.323 149.85C590.156 150.717 591.623 151.85 592.723 153.25C593.856 154.65 594.706 156.15 595.273 157.75C595.873 159.35 596.273 160.917 596.473 162.45C596.673 163.95 596.773 165.233 596.773 166.3ZM591.123 166.3C591.123 165.3 591.056 164.133 590.923 162.8C590.823 161.467 590.59 160.133 590.223 158.8C589.89 157.433 589.373 156.167 588.673 155C587.973 153.833 587.04 152.9 585.873 152.2C584.706 151.467 583.24 151.1 581.473 151.1C579.74 151.1 578.29 151.467 577.123 152.2C575.99 152.9 575.073 153.833 574.373 155C573.673 156.167 573.14 157.433 572.773 158.8C572.44 160.133 572.206 161.467 572.073 162.8C571.973 164.133 571.923 165.3 571.923 166.3C571.923 167.3 571.973 168.467 572.073 169.8C572.206 171.1 572.44 172.433 572.773 173.8C573.14 175.167 573.673 176.433 574.373 177.6C575.073 178.733 575.99 179.667 577.123 180.4C578.29 181.1 579.74 181.45 581.473 181.45C583.24 181.45 584.706 181.1 585.873 180.4C587.04 179.667 587.973 178.733 588.673 177.6C589.373 176.433 589.89 175.167 590.223 173.8C590.59 172.433 590.823 171.1 590.923 169.8C591.056 168.467 591.123 167.3 591.123 166.3Z" fill="black"/>
</svg>
