<svg width="57" height="53" viewBox="0 0 57 53" fill="none" xmlns="http://www.w3.org/2000/svg">
<path d="M28.1114 45C27.5515 44.9999 27.0146 44.7715 26.6188 44.3652L7.61856 24.8652C7.22262 24.4589 7.00012 23.9079 7 23.3333V14.6667C7 12.3681 7.88969 10.1637 9.47335 8.53841C11.057 6.91309 13.2049 6 15.4445 6H23.8891C24.449 6.00012 24.9858 6.22848 25.3817 6.63483L44.3819 26.1348C44.7777 26.5411 45 27.0921 45 27.6667C45 28.2412 44.7777 28.7922 44.3819 29.1985L29.6039 44.3652C29.2081 44.7715 28.6712 44.9999 28.1114 45ZM11.2223 22.4363L28.1114 39.7697L39.9042 27.6667L23.0151 10.3333H15.4445C14.3247 10.3333 13.2508 10.7899 12.4589 11.6025C11.6671 12.4152 11.2223 13.5174 11.2223 14.6667V22.4363Z" fill="#22304A"/>
<path d="M20.1875 21.6667C22.155 21.6667 23.75 20.2116 23.75 18.4167C23.75 16.6217 22.155 15.1667 20.1875 15.1667C18.22 15.1667 16.625 16.6217 16.625 18.4167C16.625 20.2116 18.22 21.6667 20.1875 21.6667Z" fill="#22304A"/>
</svg>
