<svg width="57" height="53" viewBox="0 0 57 53" fill="none" xmlns="http://www.w3.org/2000/svg">
<path d="M45.4124 29.0572L44.1465 27.888C43.7028 27.4794 43.3511 26.9939 43.1114 26.4593C42.8717 25.9246 42.7489 25.3515 42.75 24.7728V20.925C42.754 17.9944 41.6963 15.1469 39.7453 12.8359C37.7943 10.5249 35.0622 8.88334 31.9841 8.17274C31.8139 7.43584 31.3751 6.77522 30.7409 6.30127C30.1068 5.82732 29.3158 5.56875 28.5 5.56876C27.6844 5.56996 26.894 5.82962 26.2607 6.30436C25.6275 6.77909 25.1897 7.44016 25.0206 8.17713C21.9458 8.89225 19.2169 10.5342 17.2661 12.8432C15.3153 15.1522 14.2539 17.9961 14.25 20.925V24.7421C14.2462 25.9317 13.7341 27.0717 12.825 27.9143L11.5876 29.0594C10.9242 29.6687 10.398 30.3934 10.0397 31.1917C9.68136 31.99 9.49793 32.846 9.50002 33.7102V36.2813C9.50002 36.8631 9.75024 37.4211 10.1956 37.8325C10.641 38.2439 11.2451 38.475 11.875 38.475H21.375C21.375 40.2205 22.1257 41.8944 23.4619 43.1287C24.7981 44.3629 26.6103 45.0563 28.5 45.0563C30.3897 45.0563 32.202 44.3629 33.5382 43.1287C34.8743 41.8944 35.625 40.2205 35.625 38.475H45.125C45.7549 38.475 46.359 38.2439 46.8044 37.8325C47.2498 37.4211 47.5 36.8631 47.5 36.2813V33.7102C47.5024 32.8456 47.3191 31.9892 46.9608 31.1906C46.6025 30.3919 46.0762 29.6668 45.4124 29.0572ZM28.5 40.6688C27.8701 40.6688 27.266 40.4376 26.8206 40.0262C26.3752 39.6148 26.125 39.0568 26.125 38.475H30.875C30.875 39.0568 30.6248 39.6148 30.1794 40.0262C29.734 40.4376 29.1299 40.6688 28.5 40.6688ZM42.75 34.0875H14.25V33.7102C14.252 33.1287 14.502 32.5715 14.9459 32.1592L16.1833 31.0163C17.9813 29.3481 18.9936 27.0917 19 24.7377V20.925C19 18.5977 20.0009 16.3658 21.7825 14.7201C23.5641 13.0745 25.9805 12.15 28.5 12.15C31.0196 12.15 33.4359 13.0745 35.2175 14.7201C36.9991 16.3658 38 18.5977 38 20.925V24.7728C37.9967 25.9279 38.2414 27.0722 38.72 28.1393C39.1986 29.2065 39.9016 30.1754 40.7883 30.9899L42.0541 32.1592C42.4976 32.5717 42.7476 33.1288 42.75 33.7102V34.0875Z" fill="#22304A"/>
</svg>
