<svg width="31" height="30" viewBox="0 0 31 30" fill="none" xmlns="http://www.w3.org/2000/svg">
<path d="M15.3025 1.25C8.89557 1.25 1.54297 2.8125 1.54297 15C1.54297 24.6375 5.65833 28.75 15.3025 28.75C21.7082 28.75 29.0621 27.1875 29.0621 15C29.0621 5.3625 24.9467 1.25 15.3025 1.25ZM15.3025 27.5C6.4176 27.5 2.79384 23.8787 2.79384 15C2.79384 6.12125 6.4176 2.5 15.3025 2.5C24.1874 2.5 27.8112 6.12125 27.8112 15C27.8112 23.8787 24.1874 27.5 15.3025 27.5Z" fill="black"/>
<path d="M20.4674 15.6362C19.3166 15.285 18.0557 15.58 17.1951 16.4125L17.0463 16.5562C16.4096 16.34 15.5252 15.7537 15.0274 15.2787C14.537 14.7787 13.9479 13.91 13.7265 13.2812L13.8666 13.14C14.7109 12.285 15.0124 11.0387 14.6534 9.88747C14.3406 8.88247 13.5588 8.09372 12.5644 7.77622C11.4174 7.40997 10.179 7.71622 9.37969 8.53247C9.30089 8.59747 7.46086 10.1487 7.92368 12.6462C8.37274 14.92 9.99762 17.3962 11.4249 18.8587C12.8871 20.2537 15.3839 21.8962 17.6942 22.3037C20.1096 22.73 21.6219 21.1062 21.8121 20.8937C22.6689 20.0537 22.9716 18.8337 22.6026 17.7037C22.2799 16.7187 21.4818 15.9462 20.4674 15.6375V15.6362ZM20.9227 20.0112C20.9077 20.0262 19.7231 21.4 17.9244 21.0737C15.8892 20.68 13.5764 19.18 12.3055 17.9687C11.0646 16.6975 9.54981 14.4137 9.15328 12.41C8.82681 10.6562 10.124 9.53997 10.2228 9.45247C10.5943 9.07622 11.0896 8.86372 11.5975 8.87372C12.6657 8.89497 13.2674 9.64247 13.4588 10.2587C13.6802 10.9675 13.495 11.735 12.9759 12.26L12.5869 12.6537C12.4468 12.7962 12.383 12.9962 12.4143 13.1937C12.5857 14.245 13.5601 15.5662 14.1468 16.165C14.7397 16.7325 16.0743 17.6937 17.1313 17.8612C17.3165 17.8925 17.5216 17.83 17.6629 17.6937L18.062 17.3087C18.5973 16.7925 19.3779 16.6075 20.1021 16.83C20.7263 17.02 21.2167 17.49 21.4118 18.0887C21.6345 18.7675 21.4456 19.505 20.9215 20.01L20.9227 20.0112Z" fill="black"/>
</svg>
